<svg viewBox="0 0 1393 99" fill="none" xmlns="http://www.w3.org/2000/svg">
<path d="M1268.3 95.841V2.2168H1313.68L1361.54 66.3716V2.2168H1392.18V95.841H1346.8L1298.95 31.5559V95.841H1268.3Z" fill="white"/>
<path d="M1189.59 98.4489C1149.82 98.4489 1124 79.0199 1124 49.0289C1124 19.2986 1149.82 0 1189.59 0C1229.62 0 1255.31 19.2986 1255.31 49.0289C1255.31 79.0199 1229.62 98.4489 1189.59 98.4489ZM1155.94 49.0289C1155.94 63.242 1169.11 72.6305 1189.59 72.6305C1210.32 72.6305 1223.49 63.242 1223.49 49.0289C1223.49 34.9461 1210.32 25.688 1189.59 25.688C1168.98 25.688 1155.94 34.9461 1155.94 49.0289Z" fill="white"/>
<path d="M1046.58 98.4489C1006.81 98.4489 980.995 79.0199 980.995 49.0289C980.995 19.2986 1006.81 0 1046.58 0C1086.62 0 1112.3 19.2986 1112.3 49.0289C1112.3 79.0199 1086.62 98.4489 1046.58 98.4489ZM1012.94 49.0289C1012.94 63.242 1026.11 72.6305 1046.58 72.6305C1067.32 72.6305 1080.49 63.242 1080.49 49.0289C1080.49 34.9461 1067.32 25.688 1046.58 25.688C1025.98 25.688 1012.94 34.9461 1012.94 49.0289Z" fill="white"/>
<path d="M850.757 95.841V2.2168H881.4V36.1197H937.47V2.2168H968.113V95.841H937.47V61.8077H881.4V95.841H850.757Z" fill="white"/>
<path d="M740.862 95.841V2.2168H836.573V25.2969H771.505V38.4669H833.965V59.4606H771.505V72.761H836.573V95.841H740.862Z" fill="white"/>
<path d="M650.463 95.841V64.546L599.739 2.2168H637.815L665.72 38.8581L693.755 2.2168H731.83L681.106 64.546V95.841H650.463Z" fill="white"/>
<path d="M477.254 98.4489C437.222 98.4489 411.273 79.2807 411.273 49.5504C411.273 19.429 436.44 0 475.167 0C510.635 0 534.758 14.9955 536.323 36.902H503.463C501.768 31.1646 490.945 25.9488 475.428 25.9488C455.347 25.9488 443.481 35.8589 443.481 49.5504C443.481 64.2852 456.782 72.5001 479.079 72.5001C489.772 72.5001 501.638 71.0658 511.678 67.1539V62.59H472.82V43.5522H536.323V83.975C521.98 93.3635 498.899 98.4489 477.254 98.4489Z" fill="white"/>
<path d="M274.545 95.841V2.2168H319.923L367.778 66.3716V2.2168H398.421V95.841H353.043L305.188 31.5559V95.841H274.545Z" fill="white"/>
<path d="M195.827 98.4489C156.057 98.4489 130.238 79.0199 130.238 49.0289C130.238 19.2986 156.057 0 195.827 0C235.859 0 261.547 19.2986 261.547 49.0289C261.547 79.0199 235.859 98.4489 195.827 98.4489ZM162.185 49.0289C162.185 63.242 175.355 72.6305 195.827 72.6305C216.56 72.6305 229.73 63.242 229.73 49.0289C229.73 34.9461 216.56 25.688 195.827 25.688C175.225 25.688 162.185 34.9461 162.185 49.0289Z" fill="white"/>
<path d="M0 95.841V2.2168H30.643V36.1197H86.7133V2.2168H117.356V95.841H86.7133V61.8077H30.643V95.841H0Z" fill="white"/>
</svg>
